<svg width="24" height="24" viewBox="0 0 24 24" fill="none" xmlns="http://www.w3.org/2000/svg">
  <path
    d="M15.375 7.5C15.9963 7.5 16.5 6.99632 16.5 6.375C16.5 5.75368 15.9963 5.25 15.375 5.25C14.7537 5.25 14.25 5.75368 14.25 6.375C14.25 6.99632 14.7537 7.5 15.375 7.5Z"
    fill="#190E29" />
  <path d="M10 14L7.00001 12.1288" stroke="#190E29" stroke-width="1.25" stroke-linecap="round"
    stroke-linejoin="round" />
  <path
    d="M19.5 9.00001V11.25C19.5 13.637 18.5518 15.9261 16.864 17.614C15.1761 19.3018 12.8869 20.25 10.5 20.25H0.75L4.5 14.5L2 9.00001H9.75V7.12501C9.75199 5.94074 10.185 4.79768 10.9682 3.90933C11.7513 3.02099 12.8311 2.4481 14.0058 2.29768C15.1805 2.14725 16.3697 2.42958 17.3515 3.09192C18.3332 3.75426 19.0403 4.75133 19.3406 5.89689L21.75 7.50001L19.5 9.00001Z"
    stroke="#190E29" stroke-width="1.25" stroke-linecap="round" stroke-linejoin="round" />
</svg>