<svg width="24" height="24" viewBox="0 0 24 24" fill="none" xmlns="http://www.w3.org/2000/svg">
  <path fill-rule="evenodd" clip-rule="evenodd"
    d="M3.125 6C3.125 5.65482 3.40482 5.375 3.75 5.375H20.25C20.5952 5.375 20.875 5.65482 20.875 6C20.875 6.34518 20.5952 6.625 20.25 6.625H3.75C3.40482 6.625 3.125 6.34518 3.125 6Z"
    fill="black" />
  <path fill-rule="evenodd" clip-rule="evenodd"
    d="M3.125 9.75C3.125 9.40482 3.40482 9.125 3.75 9.125L20.25 9.125C20.5952 9.125 20.875 9.40482 20.875 9.75C20.875 10.0952 20.5952 10.375 20.25 10.375L3.75 10.375C3.40482 10.375 3.125 10.0952 3.125 9.75Z"
    fill="black" />
  <path fill-rule="evenodd" clip-rule="evenodd"
    d="M11.375 13.5C11.375 13.1548 11.6548 12.875 12 12.875L20.2502 12.875C20.5954 12.875 20.8752 13.1548 20.8752 13.5C20.8752 13.8452 20.5954 14.125 20.2502 14.125L12 14.125C11.6548 14.125 11.375 13.8452 11.375 13.5Z"
    fill="black" />
  <path fill-rule="evenodd" clip-rule="evenodd"
    d="M13.4059 17.25C13.4059 16.9048 13.6858 16.625 14.0309 16.625L20.25 16.625C20.5952 16.625 20.875 16.9048 20.875 17.25C20.875 17.5952 20.5952 17.875 20.25 17.875L14.0309 17.875C13.6858 17.875 13.4059 17.5952 13.4059 17.25Z"
    fill="black" />
  <path fill-rule="evenodd" clip-rule="evenodd"
    d="M8.9901 17.051C9.43273 16.3477 9.6007 15.5059 9.46192 14.6865C9.32315 13.8672 8.88736 13.1277 8.23781 12.6093C7.58827 12.0909 6.77051 11.8301 5.94078 11.8765C5.11105 11.923 4.32752 12.2735 3.73989 12.8611C3.15226 13.4487 2.80174 14.2323 2.75529 15.062C2.70884 15.8917 2.96971 16.7095 3.48808 17.359C4.00644 18.0086 4.74595 18.4444 5.56531 18.5831C6.38468 18.7219 7.22644 18.5539 7.92979 18.1113L8.97885 19.1613C9.04853 19.231 9.13126 19.2863 9.2223 19.324C9.31335 19.3617 9.41093 19.3811 9.50948 19.3811C9.60802 19.3811 9.7056 19.3617 9.79665 19.324C9.88769 19.2863 9.97042 19.231 10.0401 19.1613C10.1098 19.0916 10.1651 19.0089 10.2028 18.9179C10.2405 18.8268 10.2599 18.7292 10.2599 18.6307C10.2599 18.5321 10.2405 18.4346 10.2028 18.3435C10.1651 18.2525 10.1098 18.1697 10.0401 18.1001L8.9901 17.051ZM4.57547 14.214C4.36944 14.5223 4.25947 14.8849 4.25947 15.2557C4.25947 15.753 4.45702 16.2299 4.80865 16.5815C5.16028 16.9331 5.63719 17.1307 6.13447 17.1307C6.50531 17.1307 6.86783 17.0207 7.17617 16.8147C7.48451 16.6087 7.72483 16.3158 7.86675 15.9732C8.00866 15.6306 8.04579 15.2536 7.97345 14.8899C7.9011 14.5262 7.72252 14.1921 7.4603 13.9299C7.19808 13.6676 6.86398 13.4891 6.50027 13.4167C6.13656 13.3444 5.75955 13.3815 5.41694 13.5234C5.07433 13.6653 4.7815 13.9057 4.57547 14.214Z"
    fill="black" />
</svg>