<svg width="24" height="24" viewBox="0 0 24 24" fill="none" xmlns="http://www.w3.org/2000/svg">
  <path fill-rule="evenodd" clip-rule="evenodd"
    d="M8.38846 2.80933V7.05933C8.38846 7.47354 8.05267 7.80933 7.63846 7.80933C7.22424 7.80933 6.88846 7.47354 6.88846 7.05933V2.72599C6.88846 2.35631 7.03146 1.99806 7.29184 1.73101C7.55284 1.46332 7.91094 1.30933 8.28846 1.30933H16.0885C16.2907 1.30933 16.4843 1.39097 16.6255 1.53575L21.1755 6.20242C21.312 6.34249 21.3885 6.53037 21.3885 6.72599V19.3927C21.3885 19.7623 21.2455 20.1206 20.9851 20.3876C20.7241 20.6553 20.366 20.8093 19.9885 20.8093H14.1385C13.7242 20.8093 13.3885 20.4735 13.3885 20.0593C13.3885 19.6451 13.7242 19.3093 14.1385 19.3093H19.8885V7.03111L15.7722 2.80933H8.38846Z"
    fill="black" />
  <path fill-rule="evenodd" clip-rule="evenodd"
    d="M15.6385 1.30933C16.0527 1.30933 16.3885 1.64511 16.3885 2.05933V6.30933H19.6385C20.0527 6.30933 20.3885 6.64511 20.3885 7.05933C20.3885 7.47354 20.0527 7.80933 19.6385 7.80933H15.6385C15.2242 7.80933 14.8885 7.47354 14.8885 7.05933V2.05933C14.8885 1.64511 15.2242 1.30933 15.6385 1.30933Z"
    fill="black" />
  <path fill-rule="evenodd" clip-rule="evenodd"
    d="M4.63846 10.7468V21.3986L6.77313 19.5543C6.90937 19.4366 7.08341 19.3718 7.26346 19.3718H10.0447C10.4589 19.3718 10.7947 19.7076 10.7947 20.1218C10.7947 20.536 10.4589 20.8718 10.0447 20.8718H7.54258L5.29592 22.8129C5.10475 22.9737 4.87162 23.0766 4.62398 23.1095C4.37635 23.1425 4.12446 23.104 3.8979 22.9988C3.67135 22.8935 3.47954 22.7258 3.34501 22.5153C3.21049 22.3048 3.13883 22.0603 3.13846 21.8104L3.13846 10.5593C3.13846 10.2112 3.27674 9.87739 3.52288 9.63125C3.76902 9.38511 4.10286 9.24683 4.45096 9.24683H16.826C17.1741 9.24683 17.5079 9.38511 17.754 9.63125C18.0002 9.87739 18.1385 10.2112 18.1385 10.5593V13.0593C18.1385 13.4735 17.8027 13.8093 17.3885 13.8093C16.9742 13.8093 16.6385 13.4735 16.6385 13.0593V10.7468H4.63846Z"
    fill="black" />
  <path fill-rule="evenodd" clip-rule="evenodd"
    d="M8.63846 13.9343C8.63846 13.5201 8.97424 13.1843 9.38846 13.1843H13.8885C14.3027 13.1843 14.6385 13.5201 14.6385 13.9343C14.6385 14.3485 14.3027 14.6843 13.8885 14.6843H9.38846C8.97424 14.6843 8.63846 14.3485 8.63846 13.9343Z"
    fill="black" />
  <path fill-rule="evenodd" clip-rule="evenodd"
    d="M8.63846 16.1843C8.63846 15.7701 8.97424 15.4343 9.38846 15.4343H13.8885C14.3027 15.4343 14.6385 15.7701 14.6385 16.1843C14.6385 16.5985 14.3027 16.9343 13.8885 16.9343H9.38846C8.97424 16.9343 8.63846 16.5985 8.63846 16.1843Z"
    fill="black" />
</svg>