<svg width="24" height="24" viewBox="0 0 24 24" fill="none" xmlns="http://www.w3.org/2000/svg">
  <path
    d="M20.25 8.25V21C20.25 21.1989 20.171 21.3897 20.0303 21.5303C19.8897 21.671 19.6989 21.75 19.5 21.75C19.3011 21.75 19.1103 21.671 18.9697 21.5303C18.829 21.3897 18.75 21.1989 18.75 21V9H14.25C14.0511 9 13.8603 8.92098 13.7197 8.78033C13.579 8.63968 13.5 8.44891 13.5 8.25V3.75H5.25V10.5C5.25 10.6989 5.17098 10.8897 5.03033 11.0303C4.88968 11.171 4.69891 11.25 4.5 11.25C4.30109 11.25 4.11032 11.171 3.96967 11.0303C3.82902 10.8897 3.75 10.6989 3.75 10.5V3.75C3.75 3.35218 3.90804 2.97064 4.18934 2.68934C4.47064 2.40804 4.85218 2.25 5.25 2.25H14.25C14.3485 2.24992 14.4461 2.26926 14.5371 2.3069C14.6282 2.34454 14.7109 2.39975 14.7806 2.46938L20.0306 7.71938C20.1003 7.78908 20.1555 7.87182 20.1931 7.96286C20.2307 8.05391 20.2501 8.15148 20.25 8.25ZM15 7.5H17.6897L15 4.81031V7.5Z"
    fill="black" />
  <path
    d="M4.24646 18.8169C4.28417 18.908 4.33945 18.9907 4.40913 19.0604L6.65913 21.3104C6.72879 21.3801 6.8115 21.4354 6.90255 21.4732C6.9936 21.5109 7.0912 21.5303 7.18976 21.5303C7.28832 21.5303 7.38591 21.5109 7.47696 21.4732C7.56801 21.4354 7.65073 21.3801 7.72038 21.3104L9.97038 19.0604C10.0401 18.9907 10.0953 18.908 10.1331 18.8169C10.1708 18.7259 10.1902 18.6283 10.1902 18.5297C10.1902 18.4312 10.1708 18.3336 10.1331 18.2426C10.0953 18.1515 10.0401 18.0688 9.97038 17.9991C9.9007 17.9294 9.81797 17.8742 9.72693 17.8364C9.63588 17.7987 9.5383 17.7793 9.43976 17.7793C9.34121 17.7793 9.24363 17.7987 9.15259 17.8364C9.06154 17.8742 8.97881 17.9294 8.90913 17.9991L7.93976 18.9694V14.7797C7.93976 14.5808 7.86074 14.3901 7.72009 14.2494C7.57943 14.1088 7.38867 14.0297 7.18976 14.0297C6.99084 14.0297 6.80008 14.1088 6.65943 14.2494C6.51877 14.3901 6.43976 14.5808 6.43976 14.7797V18.9694L5.47038 17.9991C5.4007 17.9294 5.31797 17.8742 5.22693 17.8364C5.13588 17.7987 5.0383 17.7793 4.93976 17.7793C4.84121 17.7793 4.74363 17.7987 4.65259 17.8364C4.56154 17.8742 4.47881 17.9294 4.40913 17.9991C4.33945 18.0688 4.28417 18.1515 4.24646 18.2426C4.20875 18.3336 4.18934 18.4312 4.18934 18.5297C4.18934 18.6283 4.20875 18.7259 4.24646 18.8169Z"
    fill="black" />
</svg>