<svg width="24" height="24" viewBox="0 0 24 24" fill="none" xmlns="http://www.w3.org/2000/svg">
  <path
    d="M20.25 8.25V21C20.25 21.1989 20.171 21.3897 20.0303 21.5303C19.8897 21.671 19.6989 21.75 19.5 21.75C19.3011 21.75 19.1103 21.671 18.9697 21.5303C18.829 21.3897 18.75 21.1989 18.75 21V9H14.25C14.0511 9 13.8603 8.92098 13.7197 8.78033C13.579 8.63968 13.5 8.44891 13.5 8.25V3.75H5.25V10.5C5.25 10.6989 5.17098 10.8897 5.03033 11.0303C4.88968 11.171 4.69891 11.25 4.5 11.25C4.30109 11.25 4.11032 11.171 3.96967 11.0303C3.82902 10.8897 3.75 10.6989 3.75 10.5V3.75C3.75 3.35218 3.90804 2.97064 4.18934 2.68934C4.47064 2.40804 4.85218 2.25 5.25 2.25H14.25C14.3485 2.24992 14.4461 2.26926 14.5371 2.3069C14.6282 2.34454 14.7109 2.39975 14.7806 2.46938L20.0306 7.71938C20.1003 7.78908 20.1555 7.87182 20.1931 7.96286C20.2307 8.05391 20.2501 8.15148 20.25 8.25ZM15 7.5H17.6897L15 4.81031V7.5Z"
    fill="black" />
  <path
    d="M10.1331 16.7432C10.0953 16.6521 10.0401 16.5694 9.97038 16.4997L7.72038 14.2497C7.65073 14.18 7.56801 14.1247 7.47696 14.0869C7.38591 14.0492 7.28832 14.0297 7.18976 14.0297C7.09119 14.0297 6.9936 14.0492 6.90255 14.0869C6.8115 14.1247 6.72879 14.18 6.65913 14.2497L4.40913 16.4997C4.33945 16.5694 4.28417 16.6521 4.24646 16.7432C4.20875 16.8342 4.18934 16.9318 4.18934 17.0303C4.18934 17.1289 4.20875 17.2265 4.24646 17.3175C4.28417 17.4085 4.33945 17.4913 4.40913 17.561C4.47881 17.6306 4.56154 17.6859 4.65258 17.7236C4.74363 17.7613 4.84121 17.7807 4.93976 17.7807C5.0383 17.7807 5.13588 17.7613 5.22693 17.7236C5.31797 17.6859 5.4007 17.6306 5.47038 17.561L6.43976 16.5906V20.7803C6.43976 20.9792 6.51877 21.17 6.65943 21.3107C6.80008 21.4513 6.99084 21.5303 7.18976 21.5303C7.38867 21.5303 7.57943 21.4513 7.72009 21.3107C7.86074 21.17 7.93976 20.9792 7.93976 20.7803V16.5906L8.90913 17.561C8.97881 17.6306 9.06154 17.6859 9.15258 17.7236C9.24363 17.7613 9.34121 17.7807 9.43976 17.7807C9.5383 17.7807 9.63588 17.7613 9.72693 17.7236C9.81797 17.6859 9.9007 17.6306 9.97038 17.561C10.0401 17.4913 10.0953 17.4085 10.1331 17.3175C10.1708 17.2265 10.1902 17.1289 10.1902 17.0303C10.1902 16.9318 10.1708 16.8342 10.1331 16.7432Z"
    fill="black" />
</svg>