<svg width="24" height="24" viewBox="0 0 24 24" fill="none" xmlns="http://www.w3.org/2000/svg">
  <path
    d="M20.2303 11.0785C20.2019 10.9583 20.1443 10.8469 20.0625 10.7544C19.9807 10.6618 19.8773 10.5908 19.7616 10.5478L14.3606 8.5219L15.735 1.64721C15.7661 1.48748 15.7444 1.32197 15.6732 1.17564C15.602 1.0293 15.4852 0.910102 15.3403 0.836016C15.1954 0.76193 15.0303 0.73698 14.87 0.764931C14.7097 0.792882 14.5628 0.872217 14.4516 0.990965L3.95156 12.241C3.86628 12.3308 3.80459 12.4404 3.772 12.5599C3.7394 12.6795 3.73692 12.8052 3.76478 12.9259C3.79264 13.0466 3.84996 13.1585 3.93163 13.2517C4.01331 13.3448 4.11678 13.4163 4.23281 13.4597L9.63562 15.4857L8.265 22.3528C8.23388 22.5126 8.25555 22.6781 8.32676 22.8244C8.39796 22.9708 8.51482 23.09 8.65971 23.164C8.8046 23.2381 8.96966 23.2631 9.12998 23.2351C9.29029 23.2072 9.43717 23.1278 9.54844 23.0091L20.0484 11.7591C20.1322 11.6692 20.1926 11.5601 20.2243 11.4415C20.256 11.3228 20.2581 11.1981 20.2303 11.0785ZM10.2534 20.0625L11.235 15.1519C11.2701 14.9777 11.2423 14.7968 11.1564 14.6412C11.0706 14.4857 10.9323 14.3656 10.7662 14.3025L5.8125 12.4416L13.7456 3.94221L12.765 8.85284C12.7299 9.027 12.7577 9.20797 12.8436 9.36352C12.9294 9.51907 13.0677 9.6391 13.2338 9.70222L18.1838 11.5585L10.2534 20.0625Z"
    fill="black" />
</svg>