<svg width="24" height="24" viewBox="0 0 24 24" fill="none" xmlns="http://www.w3.org/2000/svg">
  <path
    d="M14.25 3.75C14.25 3.94891 14.171 4.13968 14.0303 4.28033C13.8897 4.42098 13.6989 4.5 13.5 4.5H10.5C10.3011 4.5 10.1103 4.42098 9.96967 4.28033C9.82902 4.13968 9.75 3.94891 9.75 3.75C9.75 3.55109 9.82902 3.36032 9.96967 3.21967C10.1103 3.07902 10.3011 3 10.5 3H13.5C13.6989 3 13.8897 3.07902 14.0303 3.21967C14.171 3.36032 14.25 3.55109 14.25 3.75ZM13.5 19.5H10.5C10.3011 19.5 10.1103 19.579 9.96967 19.7197C9.82902 19.8603 9.75 20.0511 9.75 20.25C9.75 20.4489 9.82902 20.6397 9.96967 20.7803C10.1103 20.921 10.3011 21 10.5 21H13.5C13.6989 21 13.8897 20.921 14.0303 20.7803C14.171 20.6397 14.25 20.4489 14.25 20.25C14.25 20.0511 14.171 19.8603 14.0303 19.7197C13.8897 19.579 13.6989 19.5 13.5 19.5ZM19.5 4.5V6.75C19.5 6.94891 19.579 7.13968 19.7197 7.28033C19.8603 7.42098 20.0511 7.5 20.25 7.5C20.4489 7.5 20.6397 7.42098 20.7803 7.28033C20.921 7.13968 21 6.94891 21 6.75V4.5C21 4.10218 20.842 3.72064 20.5607 3.43934C20.2794 3.15804 19.8978 3 19.5 3H17.25C17.0511 3 16.8603 3.07902 16.7197 3.21967C16.579 3.36032 16.5 3.55109 16.5 3.75C16.5 3.94891 16.579 4.13968 16.7197 4.28033C16.8603 4.42098 17.0511 4.5 17.25 4.5H19.5ZM20.25 9.75C20.0511 9.75 19.8603 9.82902 19.7197 9.96967C19.579 10.1103 19.5 10.3011 19.5 10.5V13.5C19.5 13.6989 19.579 13.8897 19.7197 14.0303C19.8603 14.171 20.0511 14.25 20.25 14.25C20.4489 14.25 20.6397 14.171 20.7803 14.0303C20.921 13.8897 21 13.6989 21 13.5V10.5C21 10.3011 20.921 10.1103 20.7803 9.96967C20.6397 9.82902 20.4489 9.75 20.25 9.75ZM3.75 14.25C3.94891 14.25 4.13968 14.171 4.28033 14.0303C4.42098 13.8897 4.5 13.6989 4.5 13.5V10.5C4.5 10.3011 4.42098 10.1103 4.28033 9.96967C4.13968 9.82902 3.94891 9.75 3.75 9.75C3.55109 9.75 3.36032 9.82902 3.21967 9.96967C3.07902 10.1103 3 10.3011 3 10.5V13.5C3 13.6989 3.07902 13.8897 3.21967 14.0303C3.36032 14.171 3.55109 14.25 3.75 14.25ZM6.75 19.5H4.5V17.25C4.5 17.0511 4.42098 16.8603 4.28033 16.7197C4.13968 16.579 3.94891 16.5 3.75 16.5C3.55109 16.5 3.36032 16.579 3.21967 16.7197C3.07902 16.8603 3 17.0511 3 17.25V19.5C3 19.8978 3.15804 20.2794 3.43934 20.5607C3.72064 20.842 4.10218 21 4.5 21H6.75C6.94891 21 7.13968 20.921 7.28033 20.7803C7.42098 20.6397 7.5 20.4489 7.5 20.25C7.5 20.0511 7.42098 19.8603 7.28033 19.7197C7.13968 19.579 6.94891 19.5 6.75 19.5ZM6.75 3H4.5C4.10218 3 3.72064 3.15804 3.43934 3.43934C3.15804 3.72064 3 4.10218 3 4.5V6.75C3 6.94891 3.07902 7.13968 3.21967 7.28033C3.36032 7.42098 3.55109 7.5 3.75 7.5C3.94891 7.5 4.13968 7.42098 4.28033 7.28033C4.42098 7.13968 4.5 6.94891 4.5 6.75V4.5H6.75C6.94891 4.5 7.13968 4.42098 7.28033 4.28033C7.42098 4.13968 7.5 3.94891 7.5 3.75C7.5 3.55109 7.42098 3.36032 7.28033 3.21967C7.13968 3.07902 6.94891 3 6.75 3ZM22.5 19.5H21V18C21 17.8011 20.921 17.6103 20.7803 17.4697C20.6397 17.329 20.4489 17.25 20.25 17.25C20.0511 17.25 19.8603 17.329 19.7197 17.4697C19.579 17.6103 19.5 17.8011 19.5 18V19.5H18C17.8011 19.5 17.6103 19.579 17.4697 19.7197C17.329 19.8603 17.25 20.0511 17.25 20.25C17.25 20.4489 17.329 20.6397 17.4697 20.7803C17.6103 20.921 17.8011 21 18 21H19.5V22.5C19.5 22.6989 19.579 22.8897 19.7197 23.0303C19.8603 23.171 20.0511 23.25 20.25 23.25C20.4489 23.25 20.6397 23.171 20.7803 23.0303C20.921 22.8897 21 22.6989 21 22.5V21H22.5C22.6989 21 22.8897 20.921 23.0303 20.7803C23.171 20.6397 23.25 20.4489 23.25 20.25C23.25 20.0511 23.171 19.8603 23.0303 19.7197C22.8897 19.579 22.6989 19.5 22.5 19.5Z"
    fill="black" />
</svg>