<svg width="24" height="24" viewBox="0 0 24 24" fill="none" xmlns="http://www.w3.org/2000/svg">
  <path
    d="M21.6478 11.625C21.7469 11.7969 21.7738 12.001 21.7226 12.1927C21.6715 12.3844 21.5465 12.5481 21.375 12.6478L12.375 17.8978C12.2603 17.9647 12.1299 17.9999 11.9972 17.9999C11.8644 17.9999 11.7341 17.9647 11.6194 17.8978L2.61938 12.6478C2.45034 12.5462 2.32811 12.3822 2.27916 12.1911C2.2302 12.0001 2.25846 11.7974 2.35781 11.6271C2.45717 11.4567 2.61962 11.3324 2.81 11.2809C3.00037 11.2295 3.20336 11.2551 3.375 11.3522L12 16.3819L20.625 11.3522C20.7969 11.2531 21.0011 11.2262 21.1927 11.2773C21.3844 11.3285 21.5481 11.4535 21.6478 11.625ZM2.25 7.49999C2.2503 7.36862 2.2851 7.23964 2.35091 7.12595C2.41672 7.01227 2.51124 6.91786 2.625 6.85217L11.625 1.60217C11.7397 1.5353 11.8701 1.50006 12.0028 1.50006C12.1356 1.50006 12.2659 1.5353 12.3806 1.60217L21.3806 6.85217C21.4938 6.91823 21.5878 7.0128 21.6531 7.12646C21.7183 7.24012 21.7527 7.36891 21.7527 7.49999C21.7527 7.63106 21.7183 7.75985 21.6531 7.87351C21.5878 7.98718 21.4938 8.08175 21.3806 8.1478L12.3806 13.3978C12.2659 13.4647 12.1356 13.4999 12.0028 13.4999C11.8701 13.4999 11.7397 13.4647 11.625 13.3978L2.625 8.1478C2.51124 8.08212 2.41672 7.98771 2.35091 7.87402C2.2851 7.76033 2.2503 7.63135 2.25 7.49999ZM4.48875 7.49999L12 11.8819L19.5112 7.49999L12 3.11811L4.48875 7.49999ZM21.75 18H17.25C17.0511 18 16.8603 18.079 16.7197 18.2197C16.579 18.3603 16.5 18.5511 16.5 18.75C16.5 18.9489 16.579 19.1397 16.7197 19.2803C16.8603 19.421 17.0511 19.5 17.25 19.5H21.75C21.9489 19.5 22.1397 19.421 22.2803 19.2803C22.421 19.1397 22.5 18.9489 22.5 18.75C22.5 18.5511 22.421 18.3603 22.2803 18.2197C22.1397 18.079 21.9489 18 21.75 18ZM13.125 20.2275L12 20.8837L3.375 15.8522C3.20423 15.7671 3.00748 15.7504 2.82479 15.8053C2.6421 15.8602 2.4872 15.9827 2.39163 16.1478C2.29606 16.3129 2.26699 16.5082 2.31035 16.694C2.3537 16.8798 2.46622 17.0421 2.625 17.1478L11.625 22.3978C11.7397 22.4647 11.8701 22.4999 12.0028 22.4999C12.1356 22.4999 12.2659 22.4647 12.3806 22.3978L13.8806 21.5231C13.9671 21.4742 14.0429 21.4086 14.1038 21.3302C14.1647 21.2517 14.2094 21.1619 14.2353 21.066C14.2612 20.9702 14.2679 20.8701 14.2548 20.7716C14.2417 20.6732 14.2092 20.5783 14.1592 20.4925C14.1091 20.4067 14.0426 20.3317 13.9633 20.2718C13.884 20.212 13.7937 20.1685 13.6975 20.1438C13.6013 20.1192 13.5011 20.1139 13.4028 20.1282C13.3046 20.1426 13.2101 20.1763 13.125 20.2275Z"
    fill="black" />
</svg>