<svg width="24" height="24" viewBox="0 0 24 24" fill="none" xmlns="http://www.w3.org/2000/svg">
  <path fill-rule="evenodd" clip-rule="evenodd"
    d="M3.125 6C3.125 5.65482 3.40482 5.375 3.75 5.375H20.25C20.5952 5.375 20.875 5.65482 20.875 6C20.875 6.34518 20.5952 6.625 20.25 6.625H3.75C3.40482 6.625 3.125 6.34518 3.125 6Z"
    fill="black" />
  <path fill-rule="evenodd" clip-rule="evenodd"
    d="M12.6245 8.05C12.9696 8.05 13.2495 8.32982 13.2495 8.675V11.3C13.2495 11.6452 12.9696 11.925 12.6245 11.925H9.99945C9.65427 11.925 9.37445 11.6452 9.37445 11.3C9.37445 10.9548 9.65427 10.675 9.99945 10.675H11.9995V8.675C11.9995 8.32982 12.2793 8.05 12.6245 8.05Z"
    fill="black" />
  <path fill-rule="evenodd" clip-rule="evenodd"
    d="M3.87519 9.267C4.89887 8.26691 6.27555 7.71072 7.70664 7.71905C9.13774 7.72738 10.5079 8.29956 11.5198 9.31149L13.0664 10.8581C13.3105 11.1021 13.3105 11.4979 13.0664 11.7419C12.8223 11.986 12.4266 11.986 12.1825 11.7419L10.636 10.1954C9.85662 9.41609 8.80147 8.97544 7.69937 8.96903C6.59726 8.96261 5.53706 9.39095 4.74871 10.1611C4.5018 10.4023 4.1061 10.3977 3.86489 10.1508C3.62367 9.90392 3.62828 9.50822 3.87519 9.267Z"
    fill="black" />
  <path fill-rule="evenodd" clip-rule="evenodd"
    d="M2.37445 14.8C2.37445 14.4548 2.65427 14.175 2.99945 14.175H5.62445C5.96963 14.175 6.24945 14.4548 6.24945 14.8C6.24945 15.1452 5.96963 15.425 5.62445 15.425H3.62445V17.425C3.62445 17.7702 3.34463 18.05 2.99945 18.05C2.65427 18.05 2.37445 17.7702 2.37445 17.425V14.8Z"
    fill="black" />
  <path fill-rule="evenodd" clip-rule="evenodd"
    d="M2.55751 14.3581C2.80159 14.114 3.19731 14.114 3.44139 14.3581L4.98795 15.9046C5.76728 16.6839 6.82243 17.1246 7.92453 17.131C9.02664 17.1374 10.0868 16.7091 10.8752 15.9389C11.1221 15.6977 11.5178 15.7023 11.759 15.9492C12.0002 16.1961 11.9956 16.5918 11.7487 16.833C10.725 17.8331 9.34835 18.3893 7.91726 18.381C6.48616 18.3726 5.11605 17.8004 4.10408 16.7885L2.55751 15.2419C2.31343 14.9979 2.31343 14.6021 2.55751 14.3581Z"
    fill="black" />
  <path fill-rule="evenodd" clip-rule="evenodd"
    d="M14.9915 9.75C14.9915 9.40482 15.2713 9.125 15.6165 9.125L20.25 9.125C20.5952 9.125 20.875 9.40482 20.875 9.75C20.875 10.0952 20.5952 10.375 20.25 10.375L15.6165 10.375C15.2713 10.375 14.9915 10.0952 14.9915 9.75Z"
    fill="black" />
  <path fill-rule="evenodd" clip-rule="evenodd"
    d="M7.18695 13.5C7.18695 13.1548 7.46677 12.875 7.81195 12.875L20.25 12.875C20.5952 12.875 20.875 13.1548 20.875 13.5C20.875 13.8452 20.5952 14.125 20.25 14.125L7.81195 14.125C7.46677 14.125 7.18695 13.8452 7.18695 13.5Z"
    fill="black" />
  <path fill-rule="evenodd" clip-rule="evenodd"
    d="M13.4059 17.25C13.4059 16.9048 13.6858 16.625 14.0309 16.625L20.25 16.625C20.5952 16.625 20.875 16.9048 20.875 17.25C20.875 17.5952 20.5952 17.875 20.25 17.875L14.0309 17.875C13.6858 17.875 13.4059 17.5952 13.4059 17.25Z"
    fill="black" />
</svg>