<svg width="24" height="24" viewBox="0 0 24 24" fill="none" xmlns="http://www.w3.org/2000/svg">
  <path
    d="M2.9995 5.25001V9.75001C2.9995 9.94892 3.07852 10.1397 3.21917 10.2803C3.35983 10.421 3.55059 10.5 3.7495 10.5H8.2495C8.44842 10.5 8.63918 10.421 8.77983 10.2803C8.92049 10.1397 8.9995 9.94892 8.9995 9.75001C8.9995 9.5511 8.92049 9.36033 8.77983 9.21968C8.63918 9.07903 8.44842 9.00001 8.2495 9.00001H5.68075L8.17357 6.71626L8.197 6.69376C9.23944 5.65172 10.5658 4.93994 12.0104 4.64734C13.455 4.35473 14.9538 4.49428 16.3196 5.04854C17.6854 5.60281 18.8575 6.54721 19.6897 7.76379C20.5218 8.98036 20.9771 10.4152 20.9985 11.889C21.02 13.3627 20.6067 14.8102 19.8103 16.0505C19.0139 17.2907 17.8697 18.2688 16.5206 18.8626C15.1715 19.4564 13.6774 19.6395 12.2249 19.389C10.7724 19.1386 9.42588 18.4657 8.35357 17.4544C8.20898 17.3176 8.016 17.2439 7.81706 17.2495C7.61812 17.255 7.42954 17.3393 7.29278 17.4839C7.15603 17.6285 7.08232 17.8215 7.08786 18.0204C7.09339 18.2194 7.17773 18.4079 7.32232 18.5447C8.98969 20.126 11.2015 21.0052 13.4995 21H13.6233C15.0972 20.9798 16.5437 20.5979 17.8355 19.8878C19.1274 19.1776 20.225 18.161 21.0319 16.9274C21.8388 15.6937 22.3304 14.2807 22.4633 12.8126C22.5963 11.3445 22.3666 9.86616 21.7944 8.5076C21.2222 7.14903 20.3251 5.95181 19.1819 5.02116C18.0387 4.09051 16.6843 3.45492 15.238 3.17026C13.7916 2.88559 12.2974 2.96057 10.8868 3.38859C9.47615 3.81662 8.19226 4.58459 7.14794 5.62501L4.4995 8.04376V5.25001C4.4995 5.0511 4.42049 4.86033 4.27983 4.71968C4.13918 4.57903 3.94842 4.50001 3.7495 4.50001C3.55059 4.50001 3.35983 4.57903 3.21917 4.71968C3.07852 4.86033 2.9995 5.0511 2.9995 5.25001Z"
    fill="black" />
</svg>