<svg width="24" height="24" viewBox="0 0 24 24" fill="none" xmlns="http://www.w3.org/2000/svg">
  <path fill-rule="evenodd" clip-rule="evenodd"
    d="M2.46014 11.6851C2.63407 11.3869 3.01676 11.2862 3.31492 11.4601L12 16.5264L20.6851 11.4601C20.9832 11.2862 21.3659 11.3869 21.5399 11.6851C21.7138 11.9832 21.6131 12.3659 21.3149 12.5399L12.3149 17.7899C12.1203 17.9034 11.8797 17.9034 11.6851 17.7899L2.68508 12.5399C2.38693 12.3659 2.28622 11.9832 2.46014 11.6851Z"
    fill="black" />
  <path fill-rule="evenodd" clip-rule="evenodd"
    d="M11.6851 1.71014C11.8797 1.59662 12.1203 1.59662 12.3149 1.71014L13.2189 2.23744C13.517 2.41137 13.6177 2.79407 13.4438 3.09222C13.2699 3.39038 12.8872 3.49109 12.589 3.31717L12 2.97356L4.2404 7.5L12 12.0264L13.3579 11.2343C13.6561 11.0604 14.0387 11.1611 14.2127 11.4593C14.3866 11.7574 14.2859 12.1401 13.9877 12.3141L12.3149 13.2899C12.1203 13.4034 11.8797 13.4034 11.6851 13.2899L2.68508 8.03986C2.49307 7.92786 2.375 7.72229 2.375 7.5C2.375 7.27771 2.49307 7.07214 2.68508 6.96014L11.6851 1.71014Z"
    fill="black" />
  <path fill-rule="evenodd" clip-rule="evenodd"
    d="M15.6952 9.1582C16.0404 9.1582 16.3202 9.43803 16.3202 9.7832C16.3202 10.0401 16.4223 10.2865 16.604 10.4682C16.7856 10.6499 17.032 10.752 17.289 10.752C17.5459 10.752 17.7923 10.6499 17.974 10.4682C18.1557 10.2865 18.2577 10.0401 18.2577 9.7832C18.2577 9.43803 18.5375 9.1582 18.8827 9.1582C19.2279 9.1582 19.5077 9.43803 19.5077 9.7832C19.5077 10.3717 19.274 10.936 18.8579 11.3521C18.4418 11.7682 17.8774 12.002 17.289 12.002C16.7005 12.002 16.1362 11.7682 15.7201 11.3521C15.304 10.936 15.0702 10.3717 15.0702 9.7832C15.0702 9.43803 15.35 9.1582 15.6952 9.1582Z"
    fill="black" />
  <path fill-rule="evenodd" clip-rule="evenodd"
    d="M17.289 2.43945C16.5037 2.43945 15.7506 2.75141 15.1953 3.30669C14.64 3.86198 14.328 4.6151 14.328 5.40039C14.328 6.99298 14.0143 8.36444 13.6715 9.1582H20.9072C20.564 8.36439 20.2499 6.99327 20.2499 5.40039C20.2499 4.6151 19.938 3.86198 19.3827 3.30669C18.8274 2.75141 18.0743 2.43945 17.289 2.43945ZM14.3114 2.42281C15.1011 1.6331 16.1722 1.18945 17.289 1.18945C18.4058 1.18945 19.4769 1.6331 20.2666 2.42281C21.0563 3.21251 21.4999 4.28358 21.4999 5.40039C21.4999 7.11599 21.9019 8.43026 22.1579 8.8724C22.2476 9.02772 22.2952 9.20452 22.2954 9.38386C22.2955 9.56321 22.2486 9.73944 22.1592 9.89492C22.0698 10.0504 21.9411 10.1797 21.786 10.2697C21.6309 10.3598 21.4549 10.4076 21.2755 10.4082L21.2733 10.4082H13.3008C13.1217 10.4071 12.946 10.359 12.7913 10.2688C12.6366 10.1785 12.5082 10.0492 12.4191 9.89381C12.33 9.73841 12.2833 9.56235 12.2836 9.38322C12.2838 9.20409 12.3311 9.02817 12.4207 8.87304C12.6763 8.43079 13.078 7.1156 13.078 5.40039C13.078 4.28358 13.5217 3.21251 14.3114 2.42281Z"
    fill="black" />
  <path fill-rule="evenodd" clip-rule="evenodd"
    d="M16.625 18.75C16.625 18.4048 16.9048 18.125 17.25 18.125H21.75C22.0952 18.125 22.375 18.4048 22.375 18.75C22.375 19.0952 22.0952 19.375 21.75 19.375H17.25C16.9048 19.375 16.625 19.0952 16.625 18.75Z"
    fill="black" />
  <path fill-rule="evenodd" clip-rule="evenodd"
    d="M19.5 15.875C19.8452 15.875 20.125 16.1548 20.125 16.5V21C20.125 21.3452 19.8452 21.625 19.5 21.625C19.1548 21.625 18.875 21.3452 18.875 21V16.5C18.875 16.1548 19.1548 15.875 19.5 15.875Z"
    fill="black" />
  <path fill-rule="evenodd" clip-rule="evenodd"
    d="M2.46014 16.1851C2.63407 15.8869 3.01676 15.7862 3.31492 15.9601L12.0001 21.0265L13.1852 20.3354C13.4834 20.1615 13.866 20.2623 14.0399 20.5605C14.2138 20.8587 14.113 21.2413 13.8148 21.4152L12.3148 22.2899C12.1202 22.4034 11.8797 22.4034 11.6851 22.2899L2.68508 17.0399C2.38693 16.8659 2.28622 16.4832 2.46014 16.1851Z"
    fill="black" />
</svg>