<svg width="24" height="24" viewBox="0 0 24 24" fill="none" xmlns="http://www.w3.org/2000/svg">
  <path fill-rule="evenodd" clip-rule="evenodd"
    d="M14.8794 10.6206C15.1235 10.8646 15.1235 11.2604 14.8794 11.5044L10.9419 15.4419C10.6979 15.686 10.3021 15.686 10.0581 15.4419L7.80806 13.1919C7.56398 12.9479 7.56398 12.5521 7.80806 12.3081C8.05214 12.064 8.44786 12.064 8.69194 12.3081L10.5 14.1161L13.9956 10.6206C14.2396 10.3765 14.6354 10.3765 14.8794 10.6206Z"
    fill="black" />
  <path fill-rule="evenodd" clip-rule="evenodd"
    d="M12 3.625C7.37462 3.625 3.625 7.37462 3.625 12C3.625 16.6254 7.37462 20.375 12 20.375C16.6254 20.375 20.375 16.6254 20.375 12C20.375 11.6548 20.6548 11.375 21 11.375C21.3452 11.375 21.625 11.6548 21.625 12C21.625 17.3157 17.3157 21.625 12 21.625C6.68426 21.625 2.375 17.3157 2.375 12C2.375 6.68426 6.68426 2.375 12 2.375C12.3452 2.375 12.625 2.65482 12.625 3C12.625 3.34518 12.3452 3.625 12 3.625Z"
    fill="black" />
  <path fill-rule="evenodd" clip-rule="evenodd"
    d="M15.6735 8.70972C16.0187 8.70972 16.2985 8.98954 16.2985 9.33472C16.2985 9.59165 16.4006 9.83805 16.5822 10.0197C16.7639 10.2014 17.0103 10.3035 17.2672 10.3035C17.5242 10.3035 17.7706 10.2014 17.9523 10.0197C18.1339 9.83805 18.236 9.59165 18.236 9.33472C18.236 8.98954 18.5158 8.70972 18.861 8.70972C19.2062 8.70972 19.486 8.98954 19.486 9.33472C19.486 9.92317 19.2522 10.4875 18.8361 10.9036C18.42 11.3197 17.8557 11.5535 17.2672 11.5535C16.6788 11.5535 16.1144 11.3197 15.6983 10.9036C15.2823 10.4875 15.0485 9.92317 15.0485 9.33472C15.0485 8.98954 15.3283 8.70972 15.6735 8.70972Z"
    fill="black" />
  <path fill-rule="evenodd" clip-rule="evenodd"
    d="M17.2672 1.99097C16.482 1.99097 15.7288 2.30292 15.1735 2.85821C14.6183 3.41349 14.3063 4.16661 14.3063 4.9519C14.3063 6.54449 13.9925 7.91596 13.6498 8.70972H20.8855C20.5423 7.9159 20.2282 6.54479 20.2282 4.9519C20.2282 4.16662 19.9162 3.41349 19.3609 2.85821C18.8057 2.30292 18.0525 1.99097 17.2672 1.99097ZM14.2897 1.97432C15.0794 1.18462 16.1504 0.740967 17.2672 0.740967C18.3841 0.740967 19.4551 1.18462 20.2448 1.97432C21.0345 2.76403 21.4782 3.83509 21.4782 4.9519C21.4782 6.66751 21.8802 7.98177 22.1362 8.42391C22.2258 8.57923 22.2735 8.75603 22.2737 8.93538C22.2738 9.11472 22.2268 9.29096 22.1374 9.44644C22.048 9.60191 21.9194 9.73116 21.7643 9.82125C21.6092 9.91133 21.4332 9.95908 21.2538 9.95971L21.2516 9.95972H13.2791C13.1 9.95864 12.9243 9.91056 12.7695 9.82029C12.6148 9.73002 12.4865 9.60073 12.3974 9.44533C12.3083 9.28993 12.2616 9.11386 12.2618 8.93473C12.2621 8.7556 12.3094 8.57968 12.399 8.42455C12.6546 7.98231 13.0563 6.66711 13.0563 4.9519C13.0563 3.83509 13.5 2.76403 14.2897 1.97432Z"
    fill="black" />
</svg>