<svg width="24" height="24" viewBox="0 0 24 24" fill="none" xmlns="http://www.w3.org/2000/svg">
  <path fill-rule="evenodd" clip-rule="evenodd"
    d="M9.875 3.75C9.875 3.40482 10.1548 3.125 10.5 3.125H12C12.3452 3.125 12.625 3.40482 12.625 3.75C12.625 4.09518 12.3452 4.375 12 4.375H10.5C10.1548 4.375 9.875 4.09518 9.875 3.75Z"
    fill="black" />
  <path fill-rule="evenodd" clip-rule="evenodd"
    d="M9.875 20.25C9.875 19.9048 10.1548 19.625 10.5 19.625H13.5C13.8452 19.625 14.125 19.9048 14.125 20.25C14.125 20.5952 13.8452 20.875 13.5 20.875H10.5C10.1548 20.875 9.875 20.5952 9.875 20.25Z"
    fill="black" />
  <path fill-rule="evenodd" clip-rule="evenodd"
    d="M20.25 11.375C20.5952 11.375 20.875 11.6548 20.875 12V13.5C20.875 13.8452 20.5952 14.125 20.25 14.125C19.9048 14.125 19.625 13.8452 19.625 13.5V12C19.625 11.6548 19.9048 11.375 20.25 11.375Z"
    fill="black" />
  <path fill-rule="evenodd" clip-rule="evenodd"
    d="M3.75 9.875C4.09518 9.875 4.375 10.1548 4.375 10.5V13.5C4.375 13.8452 4.09518 14.125 3.75 14.125C3.40482 14.125 3.125 13.8452 3.125 13.5V10.5C3.125 10.1548 3.40482 9.875 3.75 9.875Z"
    fill="black" />
  <path fill-rule="evenodd" clip-rule="evenodd"
    d="M3.75 16.625C4.09518 16.625 4.375 16.9048 4.375 17.25V19.5C4.375 19.5332 4.38817 19.5649 4.41161 19.5884C4.43505 19.6118 4.46685 19.625 4.5 19.625H6.75C7.09518 19.625 7.375 19.9048 7.375 20.25C7.375 20.5952 7.09518 20.875 6.75 20.875H4.5C4.13533 20.875 3.78559 20.7301 3.52773 20.4723C3.26987 20.2144 3.125 19.8647 3.125 19.5V17.25C3.125 16.9048 3.40482 16.625 3.75 16.625Z"
    fill="black" />
  <path fill-rule="evenodd" clip-rule="evenodd"
    d="M3.52773 3.52773C3.78559 3.26987 4.13533 3.125 4.5 3.125H6.75C7.09518 3.125 7.375 3.40482 7.375 3.75C7.375 4.09518 7.09518 4.375 6.75 4.375H4.5C4.46685 4.375 4.43505 4.38817 4.41161 4.41161C4.38817 4.43505 4.375 4.46685 4.375 4.5V6.75C4.375 7.09518 4.09518 7.375 3.75 7.375C3.40482 7.375 3.125 7.09518 3.125 6.75V4.5C3.125 4.13533 3.26987 3.78559 3.52773 3.52773Z"
    fill="black" />
  <path fill-rule="evenodd" clip-rule="evenodd"
    d="M20.25 17.375C20.5952 17.375 20.875 17.6548 20.875 18V22.5C20.875 22.8452 20.5952 23.125 20.25 23.125C19.9048 23.125 19.625 22.8452 19.625 22.5V18C19.625 17.6548 19.9048 17.375 20.25 17.375Z"
    fill="black" />
  <path fill-rule="evenodd" clip-rule="evenodd"
    d="M17.375 20.25C17.375 19.9048 17.6548 19.625 18 19.625H22.5C22.8452 19.625 23.125 19.9048 23.125 20.25C23.125 20.5952 22.8452 20.875 22.5 20.875H18C17.6548 20.875 17.375 20.5952 17.375 20.25Z"
    fill="black" />
  <path fill-rule="evenodd" clip-rule="evenodd"
    d="M15.6735 8.70972C16.0187 8.70972 16.2985 8.98954 16.2985 9.33472C16.2985 9.59165 16.4006 9.83805 16.5822 10.0197C16.7639 10.2014 17.0103 10.3035 17.2672 10.3035C17.5242 10.3035 17.7706 10.2014 17.9523 10.0197C18.1339 9.83805 18.236 9.59165 18.236 9.33472C18.236 8.98954 18.5158 8.70972 18.861 8.70972C19.2062 8.70972 19.486 8.98954 19.486 9.33472C19.486 9.92317 19.2522 10.4875 18.8361 10.9036C18.42 11.3197 17.8557 11.5535 17.2672 11.5535C16.6788 11.5535 16.1144 11.3197 15.6983 10.9036C15.2823 10.4875 15.0485 9.92317 15.0485 9.33472C15.0485 8.98954 15.3283 8.70972 15.6735 8.70972Z"
    fill="black" />
  <path fill-rule="evenodd" clip-rule="evenodd"
    d="M17.2672 1.99097C16.482 1.99097 15.7288 2.30292 15.1735 2.85821C14.6183 3.41349 14.3063 4.16661 14.3063 4.9519C14.3063 6.54449 13.9925 7.91596 13.6498 8.70972H20.8855C20.5423 7.9159 20.2282 6.54479 20.2282 4.9519C20.2282 4.16662 19.9162 3.41349 19.3609 2.85821C18.8057 2.30292 18.0525 1.99097 17.2672 1.99097ZM14.2897 1.97432C15.0794 1.18462 16.1504 0.740967 17.2672 0.740967C18.3841 0.740967 19.4551 1.18462 20.2448 1.97432C21.0345 2.76403 21.4782 3.83509 21.4782 4.9519C21.4782 6.66751 21.8802 7.98177 22.1362 8.42391C22.2258 8.57923 22.2735 8.75603 22.2737 8.93538C22.2738 9.11472 22.2268 9.29096 22.1374 9.44644C22.048 9.60191 21.9194 9.73116 21.7643 9.82125C21.6092 9.91133 21.4332 9.95908 21.2538 9.95971L21.2516 9.95972H13.2791C13.1 9.95864 12.9243 9.91056 12.7695 9.82029C12.6148 9.73002 12.4865 9.60073 12.3974 9.44533C12.3083 9.28993 12.2616 9.11386 12.2618 8.93473C12.2621 8.7556 12.3094 8.57968 12.399 8.42455C12.6546 7.98231 13.0563 6.66711 13.0563 4.9519C13.0563 3.83509 13.5 2.76403 14.2897 1.97432Z"
    fill="black" />
</svg>