<svg width="24" height="24" viewBox="0 0 24 24" fill="none" xmlns="http://www.w3.org/2000/svg">
  <path fill-rule="evenodd" clip-rule="evenodd"
    d="M3.125 5.25C3.125 4.90482 3.40482 4.625 3.75 4.625H12C12.3452 4.625 12.625 4.90482 12.625 5.25C12.625 5.59518 12.3452 5.875 12 5.875H3.75C3.40482 5.875 3.125 5.59518 3.125 5.25Z"
    fill="black" />
  <path fill-rule="evenodd" clip-rule="evenodd"
    d="M9.75 9.125C10.0952 9.125 10.375 9.40482 10.375 9.75V15.75C10.375 16.0952 10.0952 16.375 9.75 16.375C9.40482 16.375 9.125 16.0952 9.125 15.75V9.75C9.125 9.40482 9.40482 9.125 9.75 9.125Z"
    fill="black" />
  <path fill-rule="evenodd" clip-rule="evenodd"
    d="M14.25 12.125C14.5952 12.125 14.875 12.4048 14.875 12.75V15.75C14.875 16.0952 14.5952 16.375 14.25 16.375C13.9048 16.375 13.625 16.0952 13.625 15.75V12.75C13.625 12.4048 13.9048 12.125 14.25 12.125Z"
    fill="black" />
  <path fill-rule="evenodd" clip-rule="evenodd"
    d="M5.25 4.625C5.59518 4.625 5.875 4.90482 5.875 5.25V19.5C5.875 19.5332 5.88817 19.5649 5.91161 19.5884C5.93505 19.6118 5.96685 19.625 6 19.625H18C18.0332 19.625 18.0649 19.6118 18.0884 19.5884C18.1118 19.5649 18.125 19.5332 18.125 19.5V14.25C18.125 13.9048 18.4048 13.625 18.75 13.625C19.0952 13.625 19.375 13.9048 19.375 14.25V19.5C19.375 19.8647 19.2301 20.2144 18.9723 20.4723C18.7144 20.7301 18.3647 20.875 18 20.875H6C5.63533 20.875 5.28559 20.7301 5.02773 20.4723C4.76987 20.2144 4.625 19.8647 4.625 19.5V5.25C4.625 4.90482 4.90482 4.625 5.25 4.625Z"
    fill="black" />
  <path fill-rule="evenodd" clip-rule="evenodd"
    d="M8.2474 2.2474C8.64591 1.84888 9.18641 1.625 9.75 1.625H12C12.3452 1.625 12.625 1.90482 12.625 2.25C12.625 2.59518 12.3452 2.875 12 2.875H9.75C9.51794 2.875 9.29538 2.96719 9.13128 3.13128C8.96719 3.29538 8.875 3.51794 8.875 3.75V5.25C8.875 5.59518 8.59518 5.875 8.25 5.875C7.90482 5.875 7.625 5.59518 7.625 5.25V3.75C7.625 3.18641 7.84888 2.64591 8.2474 2.2474Z"
    fill="black" />
  <path fill-rule="evenodd" clip-rule="evenodd"
    d="M16.0312 8.9375C16.3764 8.9375 16.6562 9.21732 16.6562 9.5625C16.6562 9.81943 16.7583 10.0658 16.94 10.2475C17.1217 10.4292 17.3681 10.5312 17.625 10.5312C17.8819 10.5312 18.1283 10.4292 18.31 10.2475C18.4917 10.0658 18.5938 9.81943 18.5938 9.5625C18.5938 9.21732 18.8736 8.9375 19.2188 8.9375C19.5639 8.9375 19.8438 9.21732 19.8438 9.5625C19.8438 10.1509 19.61 10.7153 19.1939 11.1314C18.7778 11.5475 18.2134 11.7812 17.625 11.7812C17.0366 11.7812 16.4722 11.5475 16.0561 11.1314C15.64 10.7153 15.4062 10.1509 15.4062 9.5625C15.4062 9.21732 15.6861 8.9375 16.0312 8.9375Z"
    fill="black" />
  <path fill-rule="evenodd" clip-rule="evenodd"
    d="M17.625 2.21875C16.8397 2.21875 16.0866 2.53071 15.5313 3.08599C14.976 3.64127 14.6641 4.3944 14.6641 5.17969C14.6641 6.77227 14.3503 8.14374 14.0075 8.9375H21.2433C20.9 8.14369 20.5859 6.77257 20.5859 5.17969C20.5859 4.3944 20.274 3.64127 19.7187 3.08599C19.1634 2.5307 18.4103 2.21875 17.625 2.21875ZM14.6474 2.2021C15.4371 1.4124 16.5082 0.96875 17.625 0.96875C18.7418 0.96875 19.8129 1.4124 20.6026 2.2021C21.3923 2.99181 21.8359 4.06288 21.8359 5.17969C21.8359 6.89529 22.2379 8.20955 22.4939 8.6517C22.5836 8.80701 22.6313 8.98381 22.6314 9.16316C22.6316 9.3425 22.5846 9.51874 22.4952 9.67422C22.4058 9.82969 22.2771 9.95895 22.122 10.049C21.9669 10.1391 21.7909 10.1869 21.6116 10.1875L21.6094 10.1875H13.6369C13.4577 10.1864 13.282 10.1383 13.1273 10.0481C12.9726 9.95781 12.8443 9.82851 12.7552 9.67311C12.6661 9.51771 12.6193 9.34165 12.6196 9.16251C12.6199 8.98339 12.6671 8.80746 12.7567 8.65233C13.0124 8.21009 13.4141 6.8949 13.4141 5.17969C13.4141 4.06288 13.8577 2.99181 14.6474 2.2021Z"
    fill="black" />
</svg>