<svg width="24" height="24" viewBox="0 0 24 24" fill="none" xmlns="http://www.w3.org/2000/svg">
  <path fill-rule="evenodd" clip-rule="evenodd"
    d="M11.4328 7.11392C11.6854 7.34919 11.6994 7.74467 11.4642 7.99725L5.59382 14.2995L9.60757 15.8047C9.89448 15.9122 10.0611 16.212 10.001 16.5124L9.21046 20.465L15.6255 13.5918L12.8085 12.5354C12.4853 12.4142 12.3215 12.0539 12.4427 11.7307C12.5639 11.4075 12.9242 11.2437 13.2474 11.3649L16.9397 12.7496C17.1351 12.8229 17.2811 12.9888 17.3287 13.192C17.3764 13.3951 17.3196 13.6087 17.1772 13.7612L8.623 22.9264C8.43235 23.1307 8.1293 23.1836 7.88072 23.056C7.63214 22.9285 7.49843 22.6514 7.55323 22.3774L8.67102 16.7884L4.28055 15.142C4.08526 15.0688 3.93937 14.903 3.89161 14.6999C3.84385 14.4969 3.90051 14.2834 4.04267 14.1308L10.5495 7.14526C10.7848 6.89268 11.1803 6.87865 11.4328 7.11392Z"
    fill="black" />
  <path fill-rule="evenodd" clip-rule="evenodd"
    d="M15.9549 9.13257C16.3 9.13257 16.5799 9.41239 16.5799 9.75757C16.5799 10.0145 16.6819 10.2609 16.8636 10.4426C17.0453 10.6243 17.2917 10.7263 17.5486 10.7263C17.8055 10.7263 18.0519 10.6243 18.2336 10.4426C18.4153 10.2609 18.5174 10.0145 18.5174 9.75757C18.5174 9.41239 18.7972 9.13257 19.1424 9.13257C19.4875 9.13257 19.7674 9.41239 19.7674 9.75757C19.7674 10.346 19.5336 10.9104 19.1175 11.3265C18.7014 11.7426 18.1371 11.9763 17.5486 11.9763C16.9602 11.9763 16.3958 11.7426 15.9797 11.3265C15.5636 10.9104 15.3299 10.346 15.3299 9.75757C15.3299 9.41239 15.6097 9.13257 15.9549 9.13257Z"
    fill="black" />
  <path fill-rule="evenodd" clip-rule="evenodd"
    d="M17.5486 2.41382C16.7633 2.41382 16.0102 2.72577 15.4549 3.28106C14.8996 3.83634 14.5877 4.58947 14.5877 5.37476C14.5877 6.96734 14.2739 8.33881 13.9311 9.13257H21.1669C20.8236 8.33875 20.5096 6.96764 20.5096 5.37476C20.5096 4.58947 20.1976 3.83634 19.6423 3.28106C19.087 2.72577 18.3339 2.41382 17.5486 2.41382ZM14.571 2.39717C15.3607 1.60747 16.4318 1.16382 17.5486 1.16382C18.6654 1.16382 19.7365 1.60747 20.5262 2.39717C21.3159 3.18688 21.7596 4.25795 21.7596 5.37476C21.7596 7.09036 22.1616 8.40462 22.4175 8.84676C22.5072 9.00208 22.5549 9.17888 22.555 9.35823C22.5552 9.53757 22.5082 9.71381 22.4188 9.86929C22.3294 10.0248 22.2007 10.154 22.0456 10.2441C21.8906 10.3342 21.7145 10.3819 21.5352 10.3826L21.533 10.3826H13.5605C13.3814 10.3815 13.2056 10.3334 13.0509 10.2431C12.8962 10.1529 12.7679 10.0236 12.6788 9.86818C12.5897 9.71278 12.5429 9.53671 12.5432 9.35758C12.5435 9.17845 12.5908 9.00253 12.6803 8.8474C12.936 8.40516 13.3377 7.08996 13.3377 5.37476C13.3377 4.25795 13.7813 3.18688 14.571 2.39717Z"
    fill="black" />
</svg>