<svg width="24" height="24" viewBox="0 0 24 24" fill="none" xmlns="http://www.w3.org/2000/svg">
  <path fill-rule="evenodd" clip-rule="evenodd"
    d="M2.46014 11.6851C2.63407 11.3869 3.01676 11.2862 3.31492 11.4601L12 16.5264L20.6851 11.4601C20.9832 11.2862 21.3659 11.3869 21.5399 11.6851C21.7138 11.9832 21.6131 12.3659 21.3149 12.5399L12.3149 17.7899C12.1203 17.9034 11.8797 17.9034 11.6851 17.7899L2.68508 12.5399C2.38693 12.3659 2.28622 11.9832 2.46014 11.6851Z"
    fill="black" />
  <path fill-rule="evenodd" clip-rule="evenodd"
    d="M16.625 18.75C16.625 18.4048 16.9048 18.125 17.25 18.125H21.75C22.0952 18.125 22.375 18.4048 22.375 18.75C22.375 19.0952 22.0952 19.375 21.75 19.375H17.25C16.9048 19.375 16.625 19.0952 16.625 18.75Z"
    fill="black" />
  <path fill-rule="evenodd" clip-rule="evenodd"
    d="M2.46014 16.1851C2.63407 15.8869 3.01676 15.7862 3.31492 15.9601L12.0001 21.0265L13.1852 20.3354C13.4834 20.1615 13.866 20.2623 14.0399 20.5605C14.2138 20.8587 14.113 21.2413 13.8148 21.4152L12.3148 22.2899C12.1202 22.4034 11.8797 22.4034 11.6851 22.2899L2.68508 17.0399C2.38693 16.8659 2.28622 16.4832 2.46014 16.1851Z"
    fill="black" />
  <path fill-rule="evenodd" clip-rule="evenodd"
    d="M15.9549 9.13257C16.3 9.13257 16.5799 9.41239 16.5799 9.75757C16.5799 10.0145 16.6819 10.2609 16.8636 10.4426C17.0453 10.6243 17.2917 10.7263 17.5486 10.7263C17.8055 10.7263 18.052 10.6243 18.2336 10.4426C18.4153 10.2609 18.5174 10.0145 18.5174 9.75757C18.5174 9.41239 18.7972 9.13257 19.1424 9.13257C19.4875 9.13257 19.7674 9.41239 19.7674 9.75757C19.7674 10.346 19.5336 10.9104 19.1175 11.3265C18.7014 11.7426 18.1371 11.9763 17.5486 11.9763C16.9602 11.9763 16.3958 11.7426 15.9797 11.3265C15.5636 10.9104 15.3299 10.346 15.3299 9.75757C15.3299 9.41239 15.6097 9.13257 15.9549 9.13257Z"
    fill="black" />
  <path fill-rule="evenodd" clip-rule="evenodd"
    d="M17.5486 2.41382C16.7633 2.41382 16.0102 2.72577 15.4549 3.28106C14.8996 3.83634 14.5877 4.58947 14.5877 5.37476C14.5877 6.96734 14.2739 8.33881 13.9311 9.13257H21.1669C20.8236 8.33875 20.5096 6.96764 20.5096 5.37476C20.5096 4.58947 20.1976 3.83634 19.6423 3.28106C19.087 2.72577 18.3339 2.41382 17.5486 2.41382ZM14.571 2.39717C15.3607 1.60747 16.4318 1.16382 17.5486 1.16382C18.6654 1.16382 19.7365 1.60747 20.5262 2.39717C21.3159 3.18688 21.7596 4.25795 21.7596 5.37476C21.7596 7.09036 22.1616 8.40462 22.4175 8.84676C22.5072 9.00208 22.5549 9.17888 22.555 9.35823C22.5552 9.53757 22.5082 9.71381 22.4188 9.86929C22.3294 10.0248 22.2007 10.154 22.0456 10.2441C21.8906 10.3342 21.7145 10.3819 21.5352 10.3826L21.533 10.3826H13.5605C13.3814 10.3815 13.2056 10.3334 13.0509 10.2431C12.8962 10.1529 12.7679 10.0236 12.6788 9.86818C12.5897 9.71278 12.5429 9.53671 12.5432 9.35758C12.5435 9.17845 12.5908 9.00253 12.6803 8.8474C12.936 8.40516 13.3377 7.08996 13.3377 5.37476C13.3377 4.25795 13.7813 3.18688 14.571 2.39717Z"
    fill="black" />
  <path fill-rule="evenodd" clip-rule="evenodd"
    d="M11.9447 1.6845C12.1393 1.57099 12.38 1.57099 12.5746 1.6845L13.4785 2.21181C13.7767 2.38573 13.8774 2.76843 13.7035 3.06659C13.5295 3.36475 13.1468 3.46546 12.8487 3.29153L12.2596 2.94793L4.50004 7.47437L12.2596 12.0008L13.6175 11.2087C13.9157 11.0348 14.2984 11.1355 14.4723 11.4336C14.6462 11.7318 14.5455 12.1145 14.2474 12.2884L12.5746 13.2642C12.38 13.3777 12.1393 13.3777 11.9447 13.2642L2.94473 8.01423C2.75272 7.90222 2.63465 7.69666 2.63465 7.47437C2.63465 7.25207 2.75272 7.04651 2.94473 6.9345L11.9447 1.6845Z"
    fill="black" />
</svg>