<svg width="24" height="24" viewBox="0 0 24 24" fill="none" xmlns="http://www.w3.org/2000/svg">
  <path fill-rule="evenodd" clip-rule="evenodd"
    d="M4.05806 7.94194C4.30214 8.18602 4.69786 8.18602 4.94194 7.94194L6.875 6.00888L7.5 5.38388L8.125 6.00888L10.0581 7.94194C10.3021 8.18602 10.6979 8.18602 10.9419 7.94194C11.186 7.69786 11.186 7.30214 10.9419 7.05806L7.94194 4.05806C7.69786 3.81398 7.30214 3.81398 7.05806 4.05806L4.05806 7.05806C3.81398 7.30214 3.81398 7.69786 4.05806 7.94194Z"
    fill="black" />
  <path fill-rule="evenodd" clip-rule="evenodd"
    d="M13.0581 16.0581C13.3021 15.814 13.6979 15.814 13.9419 16.0581L16.5 18.6161L19.0581 16.0581C19.3021 15.814 19.6979 15.814 19.9419 16.0581C20.186 16.3021 20.186 16.6979 19.9419 16.9419L16.9419 19.9419C16.6979 20.186 16.3021 20.186 16.0581 19.9419L13.0581 16.9419C12.814 16.6979 12.814 16.3021 13.0581 16.0581Z"
    fill="black" />
  <path fill-rule="evenodd" clip-rule="evenodd"
    d="M16.5 12.375C16.8452 12.375 17.125 12.6548 17.125 13V19.5C17.125 19.8452 16.8452 20.125 16.5 20.125C16.1548 20.125 15.875 19.8452 15.875 19.5V13C15.875 12.6548 16.1548 12.375 16.5 12.375Z"
    fill="black" />
  <path fill-rule="evenodd" clip-rule="evenodd"
    d="M15.6735 8.70972C16.0187 8.70972 16.2985 8.98954 16.2985 9.33472C16.2985 9.59165 16.4006 9.83805 16.5822 10.0197C16.7639 10.2014 17.0103 10.3035 17.2672 10.3035C17.5242 10.3035 17.7706 10.2014 17.9523 10.0197C18.1339 9.83805 18.236 9.59165 18.236 9.33472C18.236 8.98954 18.5158 8.70972 18.861 8.70972C19.2062 8.70972 19.486 8.98954 19.486 9.33472C19.486 9.92317 19.2522 10.4875 18.8361 10.9036C18.42 11.3197 17.8557 11.5535 17.2672 11.5535C16.6788 11.5535 16.1144 11.3197 15.6983 10.9036C15.2823 10.4875 15.0485 9.92317 15.0485 9.33472C15.0485 8.98954 15.3283 8.70972 15.6735 8.70972Z"
    fill="black" />
  <path fill-rule="evenodd" clip-rule="evenodd"
    d="M17.2672 1.99097C16.482 1.99097 15.7288 2.30292 15.1735 2.85821C14.6183 3.41349 14.3063 4.16661 14.3063 4.9519C14.3063 6.54449 13.9925 7.91596 13.6498 8.70972H20.8855C20.5423 7.9159 20.2282 6.54479 20.2282 4.9519C20.2282 4.16662 19.9162 3.41349 19.3609 2.85821C18.8057 2.30292 18.0525 1.99097 17.2672 1.99097ZM14.2897 1.97432C15.0794 1.18462 16.1504 0.740967 17.2672 0.740967C18.3841 0.740967 19.4551 1.18462 20.2448 1.97432C21.0345 2.76403 21.4782 3.83509 21.4782 4.9519C21.4782 6.66751 21.8802 7.98177 22.1362 8.42391C22.2258 8.57923 22.2735 8.75603 22.2737 8.93538C22.2738 9.11472 22.2268 9.29096 22.1374 9.44644C22.048 9.60191 21.9194 9.73116 21.7643 9.82125C21.6092 9.91133 21.4332 9.95908 21.2538 9.95971L21.2516 9.95972H13.2791C13.1 9.95864 12.9243 9.91056 12.7695 9.82029C12.6148 9.73002 12.4865 9.60073 12.3974 9.44533C12.3083 9.28993 12.2616 9.11386 12.2618 8.93473C12.2621 8.7556 12.3094 8.57968 12.399 8.42455C12.6546 7.98231 13.0563 6.66711 13.0563 4.9519C13.0563 3.83509 13.5 2.76403 14.2897 1.97432Z"
    fill="black" />
  <path
    d="M7.5 20.125C7.84518 20.125 8.125 19.8452 8.125 19.5V6.00888L7.5 5.38388L6.875 6.00888V19.5C6.875 19.8452 7.15482 20.125 7.5 20.125Z"
    fill="black" />
</svg>