<svg width="24" height="24" viewBox="0 0 24 24" fill="none" xmlns="http://www.w3.org/2000/svg">
  <path fill-rule="evenodd" clip-rule="evenodd"
    d="M2.25 4.625C2.59518 4.625 2.875 4.90482 2.875 5.25V9.125H6.75C7.09518 9.125 7.375 9.40482 7.375 9.75C7.375 10.0952 7.09518 10.375 6.75 10.375H2.25C1.90483 10.375 1.625 10.0952 1.625 9.75V5.25C1.625 4.90482 1.90483 4.625 2.25 4.625Z"
    fill="black" />
  <path fill-rule="evenodd" clip-rule="evenodd"
    d="M10.9735 3.79026C11.042 4.12857 10.8233 4.45838 10.485 4.52692C9.01622 4.82449 7.66765 5.5483 6.60784 6.60792C6.60134 6.61442 6.5947 6.62078 6.58791 6.62698L2.67198 10.211C2.41735 10.4441 2.02201 10.4266 1.78896 10.172C1.55591 9.91734 1.5734 9.522 1.82803 9.28895L5.73398 5.71403C6.96602 4.48611 8.53182 3.64723 10.2368 3.3018C10.5752 3.23327 10.905 3.45196 10.9735 3.79026ZM20.2392 11.2562C20.5843 11.2512 20.8681 11.527 20.8731 11.8722C20.8983 13.6163 20.4089 15.3292 19.4661 16.7968C18.5233 18.2645 17.169 19.4217 15.5722 20.124C13.9755 20.8263 12.2072 21.0425 10.4884 20.7456C8.76946 20.4487 7.17619 19.6518 5.90759 18.4545C5.65656 18.2176 5.64511 17.8221 5.88203 17.571C6.11894 17.32 6.51451 17.3085 6.76554 17.5455C7.85546 18.5741 9.22434 19.2587 10.7011 19.5138C12.1779 19.7689 13.6971 19.5832 15.069 18.9798C16.4408 18.3764 17.6044 17.3821 18.4144 16.1212C19.2244 14.8603 19.6449 13.3887 19.6233 11.8902C19.6183 11.545 19.894 11.2612 20.2392 11.2562Z"
    fill="black" />
  <path fill-rule="evenodd" clip-rule="evenodd"
    d="M15.6735 8.70972C16.0187 8.70972 16.2985 8.98954 16.2985 9.33472C16.2985 9.59165 16.4006 9.83805 16.5822 10.0197C16.7639 10.2014 17.0103 10.3035 17.2672 10.3035C17.5242 10.3035 17.7706 10.2014 17.9523 10.0197C18.1339 9.83805 18.236 9.59165 18.236 9.33472C18.236 8.98954 18.5158 8.70972 18.861 8.70972C19.2062 8.70972 19.486 8.98954 19.486 9.33472C19.486 9.92317 19.2522 10.4875 18.8361 10.9036C18.42 11.3197 17.8557 11.5535 17.2672 11.5535C16.6788 11.5535 16.1144 11.3197 15.6984 10.9036C15.2823 10.4875 15.0485 9.92317 15.0485 9.33472C15.0485 8.98954 15.3283 8.70972 15.6735 8.70972Z"
    fill="black" />
  <path fill-rule="evenodd" clip-rule="evenodd"
    d="M17.2672 1.99097C16.482 1.99097 15.7288 2.30292 15.1735 2.85821C14.6183 3.41349 14.3063 4.16661 14.3063 4.9519C14.3063 6.54449 13.9925 7.91596 13.6498 8.70972H20.8855C20.5423 7.9159 20.2282 6.54479 20.2282 4.9519C20.2282 4.16662 19.9162 3.41349 19.3609 2.85821C18.8057 2.30292 18.0525 1.99097 17.2672 1.99097ZM14.2897 1.97432C15.0794 1.18462 16.1504 0.740967 17.2672 0.740967C18.3841 0.740967 19.4551 1.18462 20.2448 1.97432C21.0345 2.76403 21.4782 3.83509 21.4782 4.9519C21.4782 6.66751 21.8802 7.98177 22.1362 8.42391C22.2258 8.57923 22.2735 8.75603 22.2737 8.93538C22.2738 9.11472 22.2268 9.29096 22.1374 9.44644C22.048 9.60191 21.9194 9.73116 21.7643 9.82125C21.6092 9.91133 21.4332 9.95908 21.2538 9.95971L21.2516 9.95972H13.2791C13.1 9.95864 12.9243 9.91056 12.7696 9.82029C12.6148 9.73002 12.4865 9.60073 12.3974 9.44533C12.3083 9.28993 12.2616 9.11386 12.2618 8.93473C12.2621 8.7556 12.3094 8.57968 12.399 8.42455C12.6546 7.98231 13.0563 6.66711 13.0563 4.9519C13.0563 3.83509 13.5 2.76403 14.2897 1.97432Z"
    fill="black" />
</svg>